<?xml version="1.0" encoding="UTF-8"?>
<svg width="16px" height="16px" viewBox="0 0 16 16" version="1.1" xmlns="http://www.w3.org/2000/svg" xmlns:xlink="http://www.w3.org/1999/xlink">
    <!-- Generator: Sketch 46.2 (44496) - http://www.bohemiancoding.com/sketch -->
    <title>facebook</title>
    <desc>Created with Sketch.</desc>
    <defs></defs>
    <g id="Symbols" stroke="none" stroke-width="1" fill="none" fill-rule="evenodd">
        <g id="Footer" transform="translate(-688.000000, -161.000000)" fill-rule="nonzero" fill="#3B3E59">
            <g id="Group-8" transform="translate(577.000000, 160.000000)">
                <g id="facebook" transform="translate(111.000000, 1.000000)">
                    <path d="M13.8439131,0 L2.1560478,0 C0.965319178,0 0,0.965272953 0,2.15603198 L0,13.8438897 C0,15.0346488 0.965280037,15.9999217 2.1560478,15.9999217 L7.92044718,15.9999217 L7.93027141,10.2824153 L6.44485487,10.2824153 C6.25181452,10.2824153 6.09513558,10.1263246 6.09439192,9.93328571 L6.08726837,8.09029619 C6.0865247,7.89620048 6.24367332,7.7384659 6.43777047,7.7384659 L7.92048632,7.7384659 L7.92048632,5.95766999 C7.92048632,3.89107312 9.18264613,2.76579547 11.0261971,2.76579547 L12.5389728,2.76579547 C12.732522,2.76579547 12.8894749,2.9227081 12.8894749,3.116295 L12.8894749,4.67031322 C12.8894749,4.86382183 12.7326394,5.02069532 12.5391685,5.02081274 L11.6107979,5.02124329 C10.608217,5.02124329 10.4140808,5.49765649 10.4140808,6.19681595 L10.4140808,7.73850504 L12.617097,7.73850504 C12.8270069,7.73850504 12.98987,7.9217981 12.9651333,8.13025823 L12.7466908,9.97324775 C12.7257898,10.149613 12.5762345,10.2824936 12.3986545,10.2824936 L10.423905,10.2824936 L10.4140808,16 L13.8439913,16 C15.03472,16 16,15.034727 16,13.8440072 L16,2.15603198 C15.9999609,0.965272953 15.0346808,0 13.8439131,0 Z" id="Shape"></path>
                </g>
            </g>
        </g>
    </g>
</svg>