<?xml version="1.0" encoding="UTF-8"?>
<svg width="18px" height="18px" viewBox="0 0 18 18" version="1.1" xmlns="http://www.w3.org/2000/svg" xmlns:xlink="http://www.w3.org/1999/xlink">
    <!-- Generator: Sketch 46.2 (44496) - http://www.bohemiancoding.com/sketch -->
    <title>Instagram</title>
    <desc>Created with Sketch.</desc>
    <defs></defs>
    <g id="Symbols" stroke="none" stroke-width="1" fill="none" fill-rule="evenodd">
        <g id="Footer" transform="translate(-652.000000, -160.000000)">
            <g id="Group-8" transform="translate(577.000000, 160.000000)">
                <g id="Instagram" transform="translate(75.000000, 0.000000)">
                    <g id="Group">
                        <rect id="Rectangle-4" fill="#3B3E59" x="0" y="0" width="18" height="18" rx="9"></rect>
                        <g id="instagram" transform="translate(4.000000, 4.000000)" fill-rule="nonzero" fill="#F7F7F9">
                            <g id="Group-4">
                                <g id="Group-6">
                                    <path d="M7.29802734,0 L2.70197266,0 C1.21210937,0 0,1.21210937 0,2.70197266 L0,7.29802734 C0,8.78789062 1.21210937,10 2.70197266,10 L7.29802734,10 C8.78789062,10 10,8.78789062 10,7.29802734 L10,2.70197266 C10,1.21210937 8.78789062,0 7.29802734,0 Z M9.19210938,7.29802734 C9.19210938,8.34242187 8.34244141,9.19210937 7.29802734,9.19210937 L2.70197266,9.19210937 C1.65757812,9.19210937 0.807890625,8.34244141 0.807890625,7.29802734 L0.807890625,2.70197266 C0.807890625,1.65757812 1.65755859,0.807890625 2.70197266,0.807890625 L7.29802734,0.807890625 C8.34242187,0.807890625 9.19210937,1.65755859 9.19210937,2.70197266 L9.19210937,7.29802734 L9.19210938,7.29802734 Z" id="Shape"></path>
                                    <path d="M6.97796038,4.70647234 C6.91456422,4.27890386 6.71951651,3.8913802 6.41390868,3.58574024 C6.10830086,3.2801177 5.72081793,3.08503208 5.29331182,3.02164667 C5.09866469,2.99278444 4.90131801,2.99278444 4.7066883,3.02164667 C4.17834049,3.10001187 3.71215227,3.37943719 3.3939697,3.80846881 C3.07578714,4.23750042 2.94368277,4.764789 3.02203974,5.29315752 C3.1003967,5.82154346 3.37979265,6.28778069 3.80877917,6.60601412 C4.15704007,6.86434582 4.56998597,7 4.99576784,7 C5.09446731,7 5.19388085,6.99271913 5.2932944,6.97796578 C5.82164221,6.89960058 6.28783043,6.62017525 6.606013,6.19114364 C6.92421297,5.76212944 7.05631734,5.23485827 6.97796038,4.70647234 Z M5.18762832,6.26525876 C4.84966058,6.31545847 4.51238951,6.23089233 4.23795726,6.02732396 C3.96352502,5.82375559 3.78479661,5.5254836 3.73468925,5.18748034 C3.68456448,4.84947707 3.76905206,4.51217053 3.97259903,4.23770944 C4.17616342,3.96324835 4.47438664,3.78450114 4.8123718,3.7343711 C4.87461847,3.72513937 4.93730056,3.72052351 4.99998264,3.72052351 C5.06266473,3.72052351 5.12536423,3.72513937 5.1876109,3.73438852 C5.74896304,3.81763086 6.18205986,4.25075579 6.26531086,4.81218436 C6.36876504,5.50992901 5.88533446,6.1617937 5.18762832,6.26525876 Z" id="Shape"></path>
                                    <path d="M7.85355123,2.14644877 C7.76043127,2.053353 7.63155732,2 7.5,2 C7.36844268,2 7.23956873,2.05332882 7.14644877,2.14644877 C7.053353,2.23956873 7,2.36822511 7,2.5 C7,2.63177489 7.053353,2.76043127 7.14644877,2.85355123 C7.23956873,2.946647 7.36844268,3 7.5,3 C7.63155732,3 7.76043127,2.94667118 7.85355123,2.85355123 C7.946647,2.76043127 8,2.63155732 8,2.5 C8,2.36841851 7.946647,2.23954455 7.85355123,2.14644877 Z" id="Shape"></path>
                                </g>
                            </g>
                        </g>
                    </g>
                </g>
            </g>
        </g>
    </g>
</svg>