<?xml version="1.0" encoding="UTF-8"?>
<svg width="105px" height="27px" viewBox="0 0 105 27" version="1.1" 
    xmlns="http://www.w3.org/2000/svg" 
    xmlns:xlink="http://www.w3.org/1999/xlink">
    <!-- Generator: Sketch 47.1 (45422) - http://www.bohemiancoding.com/sketch -->
    <title>Logo</title>
    <desc>Created with Sketch.</desc>
    <defs>
        <polygon id="path-1" points="6.127 0.9406 6.127 6.2856 0.7824 6.2856 0.7824 0.9406 6.127 0.9406"></polygon>
        <polygon id="path-3" points="3.53124648e-16 25.3796 3.53124648e-16 0.0956 20.6937 0.0956 20.6937 25.3796"></polygon>
        <polygon id="path-5" points="0.8717 0.703 26.5637 0.703 26.5637 26.8768 0.8717 26.8768"></polygon>
    </defs>
    <g id="Symbols" stroke="none" stroke-width="1" fill="none" fill-rule="evenodd">
        <g id="Web-footer" transform="translate(-588.000000, -42.000000)">
            <g id="Group-2" transform="translate(588.000000, 41.000000)">
                <g id="Logo">
                    <g id="Group-3" transform="translate(98.000000, 20.296900)">
                        <mask id="mask-2" fill="white">
                            <use xlink:href="#path-1"></use>
                        </mask>
                        <g id="Clip-2"></g>
                        <path d="M6.1274,3.6156 C6.1274,4.4056 5.7824,5.1216 5.2294,5.6046 L5.0614,5.7426 C4.6164,6.0836 4.0594,6.2856 3.4574,6.2856 C1.9814,6.2856 0.7824,5.0866 0.7824,3.6156 C0.7824,2.9796 1.0094,2.3866 1.3844,1.9226 C1.6264,1.6316 1.9274,1.3896 2.2724,1.2216 C2.6284,1.0396 3.0324,0.9406 3.4574,0.9406 C3.6154,0.9406 3.7734,0.9556 3.9214,0.9846 C5.1704,1.2026 6.1274,2.2976 6.1274,3.6156" id="Fill-1" fill="#FFFFFF" mask="url(#mask-2)"></path>
                    </g>
                    <g id="Group-6" transform="translate(0.000000, 1.296900)">
                        <mask id="mask-4" fill="white">
                            <use xlink:href="#path-3"></use>
                        </mask>
                        <g id="Clip-5"></g>
                        <path d="M11.2487,10.5776 L10.9947,10.5296 C6.8337,9.7536 4.9757,9.1046 4.9757,7.3196 C4.9757,6.1316 5.5767,5.2486 6.8127,4.6276 C8.2857,3.8856 10.0437,3.8066 10.7237,3.8066 C12.9997,3.8346 15.2937,4.1636 16.6597,6.3646 L16.7497,6.5086 C16.8277,6.6876 16.9277,6.8516 17.0507,6.9966 C17.1167,7.0726 17.1857,7.1406 17.2607,7.2026 C17.5937,7.4906 18.0267,7.6656 18.4967,7.6656 C18.9227,7.6656 19.3207,7.5216 19.6337,7.2816 L19.7537,7.1816 C20.1447,6.8416 20.3887,6.3346 20.3887,5.7736 C20.3887,5.6406 20.3747,5.5066 20.3437,5.3786 C20.3067,5.1766 20.2307,4.9886 20.1277,4.8166 C20.1007,4.7676 20.0697,4.7206 20.0347,4.6756 L19.8427,4.3866 C17.4567,0.8236 14.4757,0.0956 10.7367,0.0956 C7.4887,0.0956 4.5567,1.1076 2.8917,2.8076 C1.6897,4.0336 1.0957,5.5786 1.1337,7.3846 C1.1337,12.4116 6.2217,13.4066 10.3147,14.2036 C14.4007,14.9866 16.8767,15.6316 16.8557,17.9936 C16.8557,21.3386 12.5777,21.6986 10.7367,21.6986 C8.2687,21.6986 5.1577,20.4936 3.9937,18.1936 L3.5197,17.2596 L3.4937,17.2726 C3.2087,16.8556 2.7677,16.5536 2.2527,16.4646 C2.1467,16.4426 2.0327,16.4326 1.9197,16.4326 C1.6147,16.4326 1.3247,16.5036 1.0697,16.6346 C0.8217,16.7546 0.6057,16.9286 0.4317,17.1376 C0.1627,17.4706 -0.0003,17.8946 -0.0003,18.3526 C-0.0003,18.5676 0.0437,18.7716 0.1097,18.9656 L0.0967,18.9726 L0.1387,19.0546 C0.1717,19.1386 0.2147,19.2176 0.2597,19.2956 L0.5707,19.9136 C2.6067,23.9446 7.1557,25.3796 10.7367,25.3796 C12.4677,25.3796 14.9747,25.1426 17.0857,24.0096 C19.4307,22.7496 20.6777,20.6826 20.6937,18.0246 C20.6937,12.3936 15.4577,11.3876 11.2487,10.5776" id="Fill-4" fill="#FFFFFF" mask="url(#mask-4)"></path>
                    </g>
                    <path d="M95.7848,12.307 L81.5428,12.307 C81.4568,12.317 81.3748,12.331 81.2918,12.351 C80.8218,12.461 80.4198,12.754 80.1588,13.145 C80.1518,13.155 80.1458,13.165 80.1418,13.175 C79.9528,13.468 79.8428,13.818 79.8428,14.192 C79.8428,14.58 79.9598,14.941 80.1588,15.239 C80.2548,15.38 80.3648,15.511 80.4958,15.617 C80.7188,15.816 80.9928,15.96 81.2918,16.025 C81.3438,16.043 81.3948,16.053 81.4498,16.06 L96.0458,16.06 L96.0838,16.012 C98.3778,16.029 99.2588,14.827 99.5518,13.56 C99.2768,6.734 93.8178,1.275 87.0838,1.179 C87.0228,1.176 86.9608,1.176 86.8988,1.176 C85.3638,1.176 83.8908,1.454 82.5278,1.965 C78.4358,3.504 75.3348,7.133 74.4768,11.582 C74.3178,12.396 74.2358,13.237 74.2358,14.099 C74.2358,16.08 74.6718,17.958 75.4548,19.634 C75.4658,19.658 75.4758,19.686 75.4898,19.71 C75.7948,20.362 76.1548,20.983 76.5638,21.567 C76.5808,21.591 76.5988,21.619 76.6158,21.643 C77.9068,23.473 79.6508,24.942 81.6868,25.883 L81.6898,25.883 C83.3388,26.608 85.1988,26.999 87.2078,26.999 C87.4448,26.999 87.6818,26.992 87.9148,26.982 C88.8798,26.903 89.8138,26.714 90.7028,26.426 C90.7308,26.415 90.7578,26.408 90.7888,26.398 C92.8008,25.811 95.5068,24.633 97.2848,22.319 C97.3198,22.274 97.3538,22.23 97.3848,22.182 C97.4528,22.079 97.5118,21.969 97.5568,21.856 C97.5698,21.818 97.5838,21.777 97.5978,21.736 C97.6458,21.578 97.6738,21.406 97.6738,21.231 C97.6738,21.131 97.6628,21.032 97.6458,20.939 L97.6458,20.925 C97.6388,20.881 97.6288,20.839 97.6188,20.798 C97.6148,20.791 97.6148,20.788 97.6118,20.781 C97.6078,20.757 97.6008,20.733 97.5908,20.712 C97.3918,20.091 96.8428,19.627 96.1728,19.551 C96.1388,19.545 96.1008,19.541 96.0628,19.541 L96.0458,19.541 C96.0218,19.538 95.9978,19.538 95.9768,19.538 C95.4518,19.538 94.9818,19.778 94.6688,20.153 C94.3738,20.476 94.0268,20.781 93.6388,21.059 C93.0688,21.471 92.4028,21.835 91.6818,22.13 C91.6788,22.134 91.6788,22.134 91.6748,22.134 C91.6648,22.137 91.6538,22.137 91.6438,22.141 L91.6408,22.147 C90.2918,22.693 88.7428,23.009 87.2078,23.009 C83.2348,23.009 79.0158,20.572 78.5448,15.133 C78.5038,14.587 78.4698,13.663 78.5348,13.323 L78.5448,13.245 C78.5998,12.65 78.6958,12.084 78.8338,11.545 C79.0708,10.587 79.4418,9.701 79.9328,8.911 C81.4738,6.443 84.1278,5.024 87.2078,5.024 C88.6878,5.024 90.0028,5.258 91.1318,5.701 C91.2218,5.736 91.3078,5.773 91.3968,5.811 C91.4928,5.852 91.5858,5.893 91.6788,5.938 C91.6918,5.941 91.7028,5.948 91.7128,5.952 C91.8228,6.006 91.9288,6.065 92.0358,6.12 C94.3148,7.339 95.9388,9.618 96.2478,12.304 L95.7848,12.304 L95.7848,12.307 Z" id="Fill-7" fill="#FFFFFF"></path>
                    <path d="M59.1977,1.4117 L59.1877,1.4117 C59.1947,1.4767 59.1977,1.5417 59.1977,1.6067 L59.1977,1.4117 Z" id="Fill-9" fill="#FFFFFF"></path>
                    <path d="M72.5368,1.1885 C72.4308,1.1675 72.3138,1.1545 72.1998,1.1545 C71.8918,1.1545 71.5928,1.2295 71.3318,1.3635 C71.0778,1.4835 70.8578,1.6665 70.6828,1.8755 C70.5968,1.9815 70.5208,2.0955 70.4598,2.2185 C70.4248,2.2835 70.3978,2.3495 70.3738,2.4175 C70.3568,2.4415 70.3428,2.4695 70.3288,2.4935 L70.1918,2.8365 L68.3068,7.5575 L68.2828,7.6225 L66.9268,11.0905 L66.8618,11.2625 L66.8578,11.2595 L66.5318,12.0455 L64.6878,16.5185 L62.7308,21.2675 L60.7528,16.4745 L58.9088,12.0005 L58.5828,11.2145 L58.5138,11.0465 L57.1578,7.5785 L57.1338,7.5125 L55.2488,2.7915 L55.1118,2.4485 C55.0978,2.4245 55.0838,2.3965 55.0668,2.3735 C55.0428,2.3045 55.0158,2.2395 54.9808,2.1735 C54.9198,2.0505 54.8438,1.9365 54.7578,1.8305 C54.5828,1.6215 54.3628,1.4395 54.1098,1.3185 C53.8478,1.1855 53.5498,1.1095 53.2408,1.1095 C53.1278,1.1095 53.0108,1.1235 52.9038,1.1445 C51.9868,1.3055 51.2868,2.1055 51.2868,3.0735 C51.2868,3.2145 51.3038,3.3585 51.3318,3.4955 C51.3348,3.4995 51.3348,3.5025 51.3348,3.5065 C51.3558,3.6025 51.3868,3.6955 51.4208,3.7845 C51.4208,3.7875 51.4238,3.7915 51.4238,3.7945 L51.6508,4.3575 L51.6508,4.3615 L57.8928,19.9595 L57.8928,19.9695 L57.9268,20.0555 L57.9308,20.0525 L58.3768,21.1165 L60.2308,25.5355 C60.2308,25.5395 60.2348,25.5425 60.2348,25.5495 L60.3138,25.7375 C60.5918,26.3425 61.0898,26.8265 61.7048,27.0875 C62.0238,27.2215 62.3738,27.2965 62.7408,27.2965 C63.1048,27.2965 63.4488,27.2245 63.7648,27.0875 C63.9738,27.0015 64.1658,26.8885 64.3408,26.7545 L64.5088,26.6175 C64.7628,26.3975 64.9728,26.1265 65.1208,25.8235 L65.2678,25.4775 C65.2678,25.4735 65.2718,25.4665 65.2718,25.4595 C65.2818,25.4295 65.2928,25.4015 65.2988,25.3705 L67.0638,21.1615 L67.5098,20.0965 L67.5138,20.1005 L67.5478,20.0145 L67.5478,20.0045 L73.7898,4.4055 L73.7898,4.4025 L74.0168,3.8395 C74.0168,3.8355 74.0208,3.8325 74.0208,3.8285 C74.0548,3.7395 74.0858,3.6465 74.1058,3.5505 C74.1058,3.5475 74.1058,3.5435 74.1088,3.5405 C74.1368,3.4025 74.1538,3.2595 74.1538,3.1185 C74.1538,2.1495 73.4538,1.3495 72.5368,1.1885" id="Fill-11" fill="#FFFFFF"></path>
                    <g id="Group-15" transform="translate(22.000000, 0.296900)">
                        <mask id="mask-6" fill="white">
                            <use xlink:href="#path-5"></use>
                        </mask>
                        <g id="Clip-14"></g>
                        <path d="M20.6997,20.2978 C19.0177,22.1968 16.5967,23.1958 13.7087,23.1958 C8.4287,23.1958 4.5967,19.2638 4.5967,13.8468 C4.5967,8.4488 8.4287,4.5378 13.7087,4.5378 C20.1127,4.5378 23.0277,9.3718 23.0277,13.8668 C23.0277,16.3248 22.2037,18.6048 20.6997,20.2978 M26.5637,2.5818 C26.5637,2.5118 26.5597,2.4438 26.5507,2.3768 L26.5507,2.3618 C26.4547,1.5368 25.8187,0.8708 25.0157,0.7338 C24.9087,0.7128 24.7997,0.7028 24.6897,0.7028 C24.3907,0.7028 24.1057,0.7718 23.8547,0.8988 C23.6117,1.0188 23.4017,1.1868 23.2307,1.3928 C23.2297,1.3938 23.2297,1.3938 23.2297,1.3938 C23.0097,1.6658 22.8617,1.9988 22.8207,2.3628 C22.8107,2.4348 22.8067,2.5068 22.8067,2.5818 C22.8067,2.6538 22.8107,2.7268 22.8207,2.7988 C22.8207,2.7998 22.8217,2.8008 22.8217,2.8028 L22.8217,4.9058 C20.6787,2.3678 17.4137,0.9088 13.7087,0.9088 C6.3887,0.9088 0.8717,6.4678 0.8717,13.8468 C0.8717,21.2768 6.3887,26.8768 13.7087,26.8768 C17.3487,26.8768 20.5207,25.4378 22.8217,22.7798 L22.8217,24.8858 C22.8217,24.8878 22.8207,24.8908 22.8207,24.8928 C22.8167,24.9208 22.8167,24.9478 22.8167,24.9758 C22.8167,24.9968 22.8167,25.0198 22.8207,25.0408 C22.8517,26.0398 23.6757,26.8438 24.6877,26.8438 C25.1077,26.8438 25.4987,26.7028 25.8077,26.4658 L25.9277,26.3698 C26.0167,26.2908 26.0977,26.2048 26.1697,26.1108 C26.3867,25.8298 26.5247,25.4848 26.5507,25.1118 L26.5507,25.0948 C26.5547,25.0558 26.5557,25.0148 26.5557,24.9758 C26.5557,24.9248 26.5537,24.8758 26.5507,24.8258 L26.5507,2.7938 C26.5597,2.7238 26.5637,2.6528 26.5637,2.5818" id="Fill-13" fill="#FFFFFF" mask="url(#mask-6)"></path>
                    </g>
                </g>
            </g>
        </g>
    </g>
</svg>