<svg width="18" height="18" viewBox="0 0 18 18" fill="none" xmlns="http://www.w3.org/2000/svg">
<path d="M16.0589 5.04193C15.6323 4.28309 15.1693 4.14351 14.2266 4.09043C13.285 4.02654 10.917 4 8.8656 4C6.81024 4 4.44132 4.02654 3.50064 4.08945C2.55995 4.14351 2.09599 4.28211 1.66546 5.04193C1.22608 5.79979 1 7.10515 1 9.4033C1 9.40527 1 9.40625 1 9.40625C1 9.40822 1 9.4092 1 9.4092V9.41116C1 11.6995 1.22608 13.0147 1.66546 13.7647C2.09599 14.5235 2.55897 14.6611 3.49965 14.725C4.44132 14.7801 6.81024 14.8125 8.8656 14.8125C10.917 14.8125 13.285 14.7801 14.2276 14.726C15.1703 14.6621 15.6332 14.5245 16.0598 13.7657C16.5032 13.0157 16.7273 11.7005 16.7273 9.41215C16.7273 9.41215 16.7273 9.4092 16.7273 9.40723C16.7273 9.40723 16.7273 9.40527 16.7273 9.40428C16.7273 7.10515 16.5032 5.79979 16.0589 5.04193ZM6.89773 12.3551V6.45739L11.8125 9.40625L6.89773 12.3551Z" fill="#3B3E59"/>
</svg>
